<svg xmlns="http://www.w3.org/2000/svg" width="144" height="47" viewBox="0 0 144 47" fill="none"><g clip-path="url(#clip0_815_2346)"><path d="M11.0003 19.2634L25.1384 15.6446C25.3531 15.6098 25.5142 15.4242 25.5142 15.2097V11.4923C25.5142 11.2198 25.2577 11.011 24.9773 11.0574L10.8392 14.6761C10.6244 14.7109 10.4634 14.8965 10.4634 15.1111V18.8284C10.4634 19.101 10.7199 19.3098 11.0003 19.2634Z" fill="#0EA0BE"></path><path d="M34.6533 14.9196L16.0172 19.7678C15.8025 19.8026 15.6414 19.9881 15.6414 20.2027L15.6175 24.1056C15.6175 24.3782 15.8741 24.587 16.1544 24.5406L29.9883 20.8986C29.4156 25.5149 24.4225 30.0151 18.0276 30.0151C10.6602 30.0151 4.74252 23.9897 5.20186 16.7347C5.60155 10.3903 11.0062 5.27534 17.5444 5.04336C20.718 4.93318 23.6411 5.93646 25.9378 7.68784C26.1346 7.83282 26.409 7.81543 26.5641 7.62985L29.3082 4.45184C29.4753 4.26046 29.4454 3.97049 29.2486 3.81971C26.0451 1.33182 21.9469 -0.112209 17.5026 0.00957654C8.28003 0.264746 0.614429 7.44427 0.0357801 16.3984C-0.62042 26.5877 7.68349 35.0431 18.0216 35.0489C27.4053 35.0489 34.7726 28.4377 35.5421 19.472C35.7211 17.4191 35.4527 15.6619 35.2498 15.1573C35.1425 14.8964 34.9158 14.8732 34.6533 14.9196Z" fill="#1E1839"></path><path d="M122.614 29.9629C123.049 29.9629 123.694 29.9107 124.242 29.8643L124.254 29.8701C124.499 29.8469 124.708 30.0383 124.708 30.2761V34.5038C124.708 34.7126 124.547 34.8865 124.332 34.9097C123.491 34.9967 121.838 35.0837 121.296 35.0837C118.987 35.0837 117.239 34.5734 116.046 33.5411C114.853 32.5088 114.256 31.0184 114.256 29.064V16.0214L108.291 17.6162V34.3588C108.291 34.585 108.1 34.7705 107.867 34.7705H103.202C102.97 34.7705 102.779 34.585 102.779 34.3588V14.1946C102.779 13.9917 102.928 13.8235 103.131 13.7887L114.256 10.8079V2.16691C114.256 1.96394 114.399 1.79576 114.602 1.76096L119.231 0.403928C119.494 0.363333 119.727 0.554709 119.727 0.809878V9.34064L124.207 8.14019C124.463 8.09379 124.702 8.29097 124.702 8.54614V12.9072C124.702 13.1102 124.553 13.2784 124.35 13.3132L119.721 14.5542V27.3416C119.721 28.2811 119.941 28.9481 120.383 29.354C120.824 29.76 121.57 29.9629 122.614 29.9629Z" fill="#1E1839"></path><path d="M107.742 7.02092C107.139 7.61825 106.394 7.91981 105.511 7.91981C104.652 7.91981 103.912 7.61825 103.298 7.02092C102.677 6.4178 102.373 5.65809 102.373 4.82879C102.373 3.99949 102.683 3.28618 103.298 2.70045C103.918 2.10892 104.628 1.81896 105.511 1.81896C106.394 1.81896 107.139 2.11472 107.742 2.70045C108.35 3.28618 108.649 3.96469 108.649 4.82879C108.649 5.69288 108.344 6.4236 107.742 7.02092Z" fill="#1E1839"></path><path d="M37.9701 1.79576L42.641 0.450324H42.6351C42.8916 0.40393 43.1242 0.595306 43.1242 0.850475V34.295C43.1242 34.5212 42.9393 34.701 42.7066 34.701H38.0357C37.809 34.701 37.6181 34.5212 37.6181 34.295V2.19591C37.6181 1.99874 37.7673 1.83056 37.9701 1.79576Z" fill="#1E1839"></path><path fill-rule="evenodd" clip-rule="evenodd" d="M54.7807 13.9395C53.3729 13.9395 51.965 14.1251 50.5631 14.4846C49.2746 14.821 47.9204 15.2965 46.5007 15.917C46.2919 16.0098 46.1964 16.2534 46.2859 16.4564L47.7892 19.6982C47.8847 19.9012 48.1352 19.9881 48.35 19.8954C49.4297 19.4082 50.4021 19.0429 51.279 18.7993C52.2573 18.5267 53.1521 18.3875 53.9515 18.3875C55.3057 18.3875 56.3377 18.6891 57.0416 19.2864C57.7455 19.8838 58.0975 20.771 58.0975 21.9425V23.4271C56.5882 22.882 54.9835 22.6036 53.2774 22.6036C50.766 22.6036 48.8033 23.143 47.4015 24.2274C45.9936 25.3119 45.2897 26.8255 45.2897 28.7799C45.2897 30.0035 45.588 31.088 46.1905 32.0275C46.793 32.967 47.6341 33.7035 48.7139 34.237C49.7936 34.7705 51.0225 35.0373 52.4065 35.0373C53.5339 35.0373 54.566 34.8923 55.4966 34.6082C56.4272 34.324 57.2922 33.8659 58.0975 33.2395V34.2834C58.0975 34.5096 58.2824 34.6894 58.5151 34.6894H62.7685C63.0011 34.6894 63.186 34.5096 63.186 34.2834V21.4728C63.186 19.0777 62.4582 17.2161 61.0027 15.8996C59.5471 14.5832 57.4711 13.9221 54.7867 13.9221L54.7807 13.9395ZM58.0975 29.6034L58.0334 29.6534C57.4561 30.1039 56.9262 30.5174 56.2244 30.769C55.5204 31.0184 54.6196 31.2214 53.7666 31.2214C52.6868 31.2214 51.8218 30.9952 51.1656 30.5371C50.5094 30.0847 50.1873 29.4642 50.1873 28.6813C50.1873 27.8984 50.5214 27.2489 51.1836 26.8023C51.8517 26.3616 52.7704 26.1354 53.9515 26.1354C54.727 26.1354 55.4667 26.2572 56.1349 26.4254C56.7526 26.582 57.3413 26.8562 57.9096 27.1209L58.0975 27.2083V29.6034Z" fill="#1E1839"></path><path d="M72.6532 21.9947L76.483 22.5398V22.5456C78.4815 22.8298 79.9967 23.4851 81.0466 24.5C82.0906 25.5149 82.6155 26.8023 82.6155 28.3681C82.6155 29.673 82.2278 30.827 81.4642 31.8303C80.6946 32.8336 79.6567 33.6223 78.3383 34.2138C77.0199 34.8053 75.5226 35.0953 73.8344 35.0953C72.0447 35.0953 70.3625 34.8517 68.7936 34.3704C67.3678 33.9296 66.1151 33.3265 65.0353 32.5552C64.8504 32.4276 64.8146 32.1783 64.9458 31.9985L67.0874 29.0466C67.2187 28.8669 67.4692 28.8263 67.6601 28.9481C68.6921 29.615 69.6824 30.1253 70.6369 30.4791C71.6987 30.8676 72.7487 31.0648 73.7986 31.0648C74.9738 31.0648 75.9103 30.8618 76.6143 30.4559C77.3182 30.0499 77.6702 29.5222 77.6702 28.8727C77.6702 28.3507 77.4673 27.9332 77.0736 27.62C76.6799 27.3069 76.0416 27.0865 75.1766 26.9531L71.3468 26.3674C69.3782 26.06 67.8808 25.3989 66.8429 24.3956C65.8108 23.3923 65.2918 22.0701 65.2918 20.4289C65.2918 19.1009 65.6259 17.9526 66.306 16.9899C66.986 16.0272 67.9465 15.2849 69.1992 14.763C70.446 14.241 71.9075 13.9801 73.5659 13.9801C75.0513 13.9801 76.489 14.1888 77.8789 14.6064C79.1376 14.9892 80.3307 15.5459 81.4582 16.2882C81.6491 16.4158 81.6909 16.6767 81.5596 16.8623L79.5015 19.6924C79.3763 19.8664 79.1257 19.9128 78.9408 19.7968C77.9625 19.1994 77.0199 18.7587 76.1132 18.4803C75.105 18.1672 74.1028 18.0106 73.1066 18.0106C72.164 18.0106 71.4005 18.1904 70.8278 18.5557C70.2551 18.9211 69.9688 19.4024 69.9688 19.9997C69.9688 20.5507 70.1716 20.9798 70.5832 21.293C70.9948 21.6061 71.6808 21.8381 72.6532 21.9947Z" fill="#1E1839"></path><path d="M94.8685 22.5398L91.0387 21.9947C90.0664 21.8381 89.3803 21.6061 88.9687 21.293C88.5571 20.9798 88.3543 20.5507 88.3543 19.9997C88.3543 19.4024 88.6406 18.9211 89.2133 18.5557C89.786 18.1904 90.5495 18.0106 91.4921 18.0106C92.4883 18.0106 93.4905 18.1672 94.4987 18.4803C95.4054 18.7587 96.348 19.1994 97.3263 19.7968C97.5112 19.9128 97.7618 19.8664 97.8871 19.6924L99.9451 16.8623C100.076 16.6767 100.035 16.4158 99.8437 16.294C98.7162 15.5517 97.5232 14.9892 96.2645 14.6122C94.8745 14.1946 93.4368 13.9859 91.9514 13.9859C90.293 13.9859 88.8315 14.2468 87.5847 14.7688C86.332 15.2907 85.3656 16.033 84.6915 16.9957C84.0114 17.9584 83.6774 19.1066 83.6774 20.4347C83.6774 22.0759 84.1963 23.3981 85.2284 24.4014C86.2604 25.4047 87.7637 26.0658 89.7323 26.3732L93.5621 26.9589C94.4271 27.0923 95.0654 27.3127 95.4591 27.6258C95.8528 27.939 96.0557 28.3565 96.0557 28.8785C96.0557 29.528 95.7037 30.0557 94.9998 30.4617C94.2959 30.8676 93.3593 31.0706 92.1841 31.0706C91.1342 31.0706 90.0842 30.8734 89.0224 30.4849C88.0679 30.1311 87.0717 29.6208 86.0456 28.9481C85.8607 28.8263 85.6042 28.8669 85.473 29.0466L83.3314 31.9985C83.2001 32.1783 83.2359 32.4276 83.4208 32.5552C84.5006 33.3265 85.7533 33.9354 87.185 34.3704C88.754 34.8517 90.4362 35.0953 92.2258 35.0953C93.9141 35.0953 95.4114 34.8053 96.7298 34.2138C98.0481 33.6281 99.0861 32.8336 99.8557 31.8303C100.619 30.827 101.007 29.673 101.007 28.3681C101.007 26.8023 100.482 25.5149 99.4381 24.5C98.3882 23.4851 96.8729 22.8298 94.8745 22.5456L94.8685 22.5398Z" fill="#1E1839"></path><path d="M138.882 15.3835L143.517 14.0207L143.505 14.0149C143.761 13.9743 143.994 14.1657 143.994 14.415V36.9453C143.994 38.8996 143.397 40.3901 142.204 41.4223C141.375 42.1414 140.26 42.4952 138.9 42.82L126.82 45.998C126.563 46.0386 126.33 45.8472 126.33 45.5978V41.0744C126.33 40.8772 126.479 40.709 126.676 40.6742L136.621 38.0703C138.548 37.4963 138.535 36.3357 138.525 35.4195C138.524 35.3546 138.524 35.2909 138.524 35.2287V34.3298C138.474 34.3459 138.425 34.3619 138.376 34.3779C137.239 34.7475 136.223 35.0779 134.187 35.0779C132.594 35.0779 131.186 34.7357 129.951 34.0514C128.722 33.3729 127.762 32.416 127.07 31.1924C126.384 29.9687 126.038 28.5827 126.038 27.0343V15.7721C126.038 15.5749 126.187 15.4067 126.384 15.3719L130.965 14.0149C131.222 13.9743 131.455 14.1657 131.455 14.415V26.2688C131.455 27.5852 131.848 28.6233 132.63 29.383C133.411 30.1427 134.467 30.5255 135.792 30.5255C136.597 30.5255 137.623 30.1601 138.536 29.7136V15.7837C138.536 15.5865 138.685 15.4183 138.882 15.3835Z" fill="#1E1839"></path></g><defs><clipPath id="clip0_815_2346"><rect width="144" height="46" fill="white" transform="translate(0 0.00390625)"></rect></clipPath></defs></svg>